<?xml version="1.0" standalone="no"?>
<!DOCTYPE svg PUBLIC "-//W3C//DTD SVG 20010904//EN"
 "http://www.w3.org/TR/2001/REC-SVG-20010904/DTD/svg10.dtd">
<svg version="1.0" xmlns="http://www.w3.org/2000/svg"
 width="512.000000pt" height="512.000000pt" viewBox="0 0 512.000000 512.000000"
 preserveAspectRatio="xMidYMid meet">

<g transform="translate(0.000000,512.000000) scale(0.100000,-0.100000)"
fill="#000000" stroke="none">
<path d="M1065 5035 c-251 -46 -453 -233 -522 -485 -17 -61 -18 -175 -18
-2085 0 -1953 1 -2022 19 -2075 56 -162 189 -280 350 -309 41 -8 612 -11 1854
-11 l1794 0 30 30 c38 38 33 61 -24 133 -143 181 -141 413 7 585 l45 54 0
2060 0 2060 -29 29 -29 29 -1704 -1 c-1341 -1 -1718 -4 -1773 -14z m325 -2100
l0 -1955 -230 0 c-280 0 -343 -12 -453 -84 l-27 -19 2 1804 3 1804 23 59 c63
168 217 304 377 334 28 5 107 10 178 11 l127 1 0 -1955z m3050 0 l0 -1955
-1445 0 -1445 0 0 1955 0 1955 1445 0 1445 0 0 -1955z m-85 -2132 c-45 -104
-57 -155 -62 -248 -6 -109 11 -203 47 -275 11 -21 20 -42 20 -45 0 -3 -778 -5
-1728 -5 l-1729 0 -61 31 c-99 49 -152 128 -160 240 -7 97 17 159 87 229 98
97 -82 89 1875 89 1633 1 1718 0 1711 -16z"/>
<path d="M3625 3806 c-53 -24 -87 -70 -92 -123 -4 -39 -1 -51 16 -67 41 -37
92 -19 118 42 10 23 20 32 37 32 25 0 39 -20 30 -43 -3 -8 -43 -49 -90 -91
-99 -91 -115 -113 -116 -157 -1 -23 6 -39 26 -56 25 -21 36 -23 152 -23 154 0
184 12 184 73 0 44 -32 67 -92 67 l-52 0 60 58 c70 67 91 118 74 181 -13 50
-41 84 -84 105 -41 19 -129 20 -171 2z"/>
<path d="M2549 3180 c-25 -15 -32 -38 -140 -485 -55 -231 -103 -422 -105 -424
-2 -3 -42 32 -88 77 -92 90 -120 100 -170 61 -19 -15 -26 -30 -26 -57 0 -35 9
-46 142 -175 79 -75 153 -140 166 -143 33 -9 70 3 86 29 8 12 66 234 129 492
l113 470 496 5 c470 5 497 6 517 24 30 27 28 85 -2 114 l-23 22 -540 0 c-320
0 -546 -4 -555 -10z"/>
<path d="M2851 2773 c-11 -10 -24 -33 -27 -51 -6 -30 -1 -38 92 -132 l98 -100
-92 -93 c-110 -111 -121 -139 -73 -188 49 -48 77 -37 188 73 l92 92 78 -80
c99 -101 123 -118 163 -109 37 8 60 39 60 80 0 25 -16 47 -95 125 l-95 94 95
97 c77 78 95 102 95 126 0 46 -34 83 -77 83 -32 0 -47 -11 -132 -95 l-97 -95
-94 95 c-80 80 -100 95 -126 95 -18 0 -41 -8 -53 -17z"/>
</g>
</svg>
